<svg version="1.1" id="Layer_1" xmlns="http://www.w3.org/2000/svg" xmlns:xlink="http://www.w3.org/1999/xlink" x="0px" y="0px"
	 width="100%" viewBox="0 0 496 496" enable-background="new 0 0 496 496" xml:space="preserve">
<path fill="#000000" opacity="1.000000" stroke="none" 
	d="
M243.691650,284.442566 
	C249.774384,281.764160 254.301651,277.931854 257.569946,271.809235 
	C252.455582,271.099030 248.341721,270.469788 244.416336,274.008209 
	C240.358780,277.665802 235.214737,278.450562 229.854019,277.248749 
	C227.239136,276.662506 225.351151,275.142273 224.314056,272.661835 
	C221.953079,267.014954 224.086334,263.709167 230.128723,263.689270 
	C239.123901,263.659607 248.121490,263.558655 257.113342,263.732178 
	C260.615631,263.799744 262.032623,262.497162 262.787079,259.064545 
	C264.862183,249.623474 262.984344,241.650223 255.278336,234.747360 
	C260.686249,234.747360 266.095428,234.677521 271.501587,234.775467 
	C274.405426,234.828049 274.213745,237.140839 274.303650,239.141998 
	C274.706635,248.114700 275.107880,257.087494 275.527954,266.466583 
	C277.491333,265.596771 278.131500,263.871857 278.988922,262.394073 
	C283.251129,255.048096 287.758606,247.825607 291.623108,240.274780 
	C293.946381,235.735382 297.002167,233.896881 301.922668,234.614700 
	C304.194733,234.946167 306.568207,234.265350 308.760925,235.101379 
	C309.767273,236.657013 308.668396,237.702133 308.013641,238.781525 
	C299.118225,253.445938 290.121155,268.049622 281.351166,282.788452 
	C279.429047,286.018768 277.266449,287.460968 273.397522,287.370422 
	C262.773102,287.121643 252.139069,287.284546 241.628693,287.284546 
	C240.928360,285.062988 242.466858,285.085083 243.691650,284.442566 
z"/>
<path fill="#000000" opacity="1.000000" stroke="none" 
	d="
M341.424530,287.124207 
	C333.603516,287.200226 326.225433,287.200226 318.847382,287.200226 
	C318.610107,286.653687 318.372833,286.107117 318.135590,285.560577 
	C325.113190,282.941010 330.780884,278.921204 334.343872,271.896606 
	C329.458862,271.020813 325.289459,270.457581 321.213043,274.072052 
	C317.014099,277.795166 311.788116,278.801666 306.222595,277.232239 
	C303.366821,276.426941 301.681915,274.477264 300.928406,271.761383 
	C299.335266,266.019226 301.115326,263.702545 307.050842,263.683594 
	C315.876312,263.655426 324.707245,263.494751 333.525177,263.753265 
	C337.619049,263.873291 339.044098,262.061920 339.719452,258.381042 
	C341.380707,249.327042 339.903717,241.501328 330.573639,235.245728 
	C339.806854,235.245728 347.712738,235.245728 355.529663,235.245728 
	C356.824066,236.937180 355.400330,238.540329 355.662384,240.565399 
	C360.184967,237.605621 364.278656,234.243271 369.700958,233.454102 
	C375.786865,232.568375 376.785553,233.459763 375.311279,239.178040 
	C374.854858,240.948288 374.285217,242.691696 373.887970,244.474258 
	C373.363220,246.828888 372.057068,247.488174 369.616943,247.491394 
	C359.027130,247.505447 353.639252,251.343765 350.410950,261.434418 
	C348.184540,268.393463 346.506104,275.527527 344.566650,282.578918 
	C344.089478,284.313782 343.932800,286.263367 341.424530,287.124207 
z"/>
<path fill="#000000" opacity="1.000000" stroke="none" 
	d="
M133.313904,245.255127 
	C130.983047,245.035339 128.258469,245.207993 129.001450,242.237350 
	C129.719452,239.366592 128.813812,234.624512 133.720718,234.814117 
	C138.135864,234.984726 139.624084,233.016220 140.979614,229.228851 
	C145.178360,217.497513 157.835236,211.762314 169.421738,216.018356 
	C170.062683,218.002548 169.016556,219.823227 168.710022,221.740067 
	C168.122574,225.413544 166.415451,227.275635 162.372101,227.015167 
	C158.000473,226.733505 155.639145,229.070099 155.475662,233.521942 
	C157.908508,235.770706 161.248947,233.554398 163.550949,235.505386 
	C162.989288,244.094681 162.918518,244.337555 154.753693,245.173447 
	C151.822968,245.473480 151.332214,247.312378 150.763306,249.422943 
	C147.908844,260.012543 144.789169,270.541626 142.337769,281.223969 
	C141.208023,286.147034 138.895691,287.994415 134.094070,287.314758 
	C132.788193,287.129913 131.431427,287.221832 130.103516,287.291473 
	C126.451439,287.483093 125.430031,286.076935 126.460396,282.451355 
	C129.504166,271.740997 132.349487,260.972656 135.118912,250.187592 
	C135.551270,248.503799 137.606628,245.882446 133.313904,245.255127 
z"/>
<path fill="#000000" opacity="1.000000" stroke="none" 
	d="
M197.245071,255.398468 
	C198.219116,246.622589 195.243622,240.093796 187.460129,235.773636 
	C191.647903,234.423065 207.141220,234.211823 212.513580,235.248947 
	C213.783676,236.814697 212.539291,238.425385 212.585739,240.523361 
	C217.186676,237.252487 221.596375,234.149063 227.109940,233.351364 
	C232.531631,232.566971 233.559494,233.560760 232.312134,238.699951 
	C231.919647,240.317001 231.467438,241.921738 231.137543,243.551331 
	C230.522095,246.591446 229.184433,247.839752 225.652145,247.554932 
	C217.489090,246.896713 211.247009,250.903458 208.318329,259.035706 
	C205.620636,266.526611 203.620605,274.296173 201.762009,282.050507 
	C200.803665,286.048981 198.961960,287.527252 194.877365,287.364502 
	C187.971161,287.089264 181.046066,287.288940 173.694565,286.546692 
	C187.219482,280.327515 194.934769,270.124451 197.245071,255.398468 
z"/>
<path fill="#000000" opacity="1.000000" stroke="none" 
	d="
M168.347443,277.483765 
	C158.587372,277.984375 154.688446,273.626190 156.308105,264.542755 
	C157.339859,258.756409 158.994339,253.255798 163.136734,248.809952 
	C166.510162,245.189392 170.589645,243.367050 175.567612,243.736526 
	C179.849136,244.054321 182.612701,246.208679 183.823730,250.410248 
	C186.652863,260.225555 178.667236,274.578766 168.347443,277.483765 
z"/>
<path fill="#000000" opacity="1.000000" stroke="none" 
	d="
M249.967148,255.198517 
	C242.274551,256.449860 234.951843,256.224823 227.581085,255.504959 
	C228.748581,246.740494 239.631470,240.834213 246.815857,244.785614 
	C250.807877,246.981216 251.759842,250.654480 249.967148,255.198517 
z"/>
<path fill="#000000" opacity="1.000000" stroke="none" 
	d="
M316.392456,243.801056 
	C324.699402,243.771729 327.944214,246.503677 327.640869,252.756821 
	C327.557617,254.473419 327.035400,255.843674 325.200165,255.916656 
	C318.280609,256.191772 311.349152,256.492676 303.782623,255.637558 
	C305.596527,248.547974 310.071655,245.471680 316.392456,243.801056 
z"/>
</svg>